<mxfile host="app.diagrams.net" modified="2021-06-27T15:40:15.809Z" agent="5.0 (Macintosh; Intel Mac OS X 10_15_7) AppleWebKit/605.1.15 (KHTML, like Gecko) Version/14.1.1 Safari/605.1.15" etag="Fid0PlAcdjCtzB0nP2e9" version="14.8.1" type="github">
  <diagram id="yPTqBSbpml-wAq45wNmc" name="Page-1">
    <mxGraphModel dx="786" dy="1087" grid="1" gridSize="10" guides="1" tooltips="1" connect="1" arrows="1" fold="1" page="1" pageScale="1" pageWidth="827" pageHeight="1169" math="0" shadow="0">
      <root>
        <mxCell id="0" />
        <mxCell id="1" parent="0" />
        <mxCell id="mnrNPgdbOXEI5jngkruV-1" value="" style="rounded=1;whiteSpace=wrap;html=1;arcSize=3;fillColor=#f5f5f5;strokeColor=#666666;fontColor=#333333;" vertex="1" parent="1">
          <mxGeometry x="90" y="110" width="650" height="680" as="geometry" />
        </mxCell>
        <mxCell id="mnrNPgdbOXEI5jngkruV-2" value="&lt;font style=&quot;font-size: 22px&quot;&gt;COVID19 TRACKER&lt;/font&gt;" style="text;html=1;strokeColor=none;fillColor=none;align=center;verticalAlign=middle;whiteSpace=wrap;rounded=0;" vertex="1" parent="1">
          <mxGeometry x="100" y="130" width="240" height="40" as="geometry" />
        </mxCell>
        <mxCell id="mnrNPgdbOXEI5jngkruV-3" value="Worldwide" style="rounded=1;whiteSpace=wrap;html=1;" vertex="1" parent="1">
          <mxGeometry x="370" y="135" width="130" height="30" as="geometry" />
        </mxCell>
        <mxCell id="mnrNPgdbOXEI5jngkruV-4" value="" style="rounded=1;whiteSpace=wrap;html=1;" vertex="1" parent="1">
          <mxGeometry x="120" y="200" width="120" height="60" as="geometry" />
        </mxCell>
        <mxCell id="mnrNPgdbOXEI5jngkruV-5" value="&lt;font style=&quot;font-size: 10px&quot;&gt;Coronavirus Cases&lt;/font&gt;" style="text;html=1;strokeColor=none;fillColor=none;align=left;verticalAlign=middle;whiteSpace=wrap;rounded=0;" vertex="1" parent="1">
          <mxGeometry x="130" y="200" width="100" height="20" as="geometry" />
        </mxCell>
        <mxCell id="mnrNPgdbOXEI5jngkruV-7" value="&lt;font style=&quot;font-size: 10px&quot;&gt;+ 2,000&lt;/font&gt;" style="text;html=1;strokeColor=none;fillColor=none;align=left;verticalAlign=middle;whiteSpace=wrap;rounded=0;" vertex="1" parent="1">
          <mxGeometry x="130" y="220" width="90" height="20" as="geometry" />
        </mxCell>
        <mxCell id="mnrNPgdbOXEI5jngkruV-8" value="&lt;font size=&quot;1&quot;&gt;1.2 M Total&lt;/font&gt;" style="text;html=1;strokeColor=none;fillColor=none;align=left;verticalAlign=middle;whiteSpace=wrap;rounded=0;" vertex="1" parent="1">
          <mxGeometry x="130" y="240" width="100" height="20" as="geometry" />
        </mxCell>
        <mxCell id="mnrNPgdbOXEI5jngkruV-16" value="" style="rounded=1;whiteSpace=wrap;html=1;" vertex="1" parent="1">
          <mxGeometry x="250" y="200" width="120" height="60" as="geometry" />
        </mxCell>
        <mxCell id="mnrNPgdbOXEI5jngkruV-17" value="&lt;font style=&quot;font-size: 10px&quot;&gt;Recovered&lt;/font&gt;" style="text;html=1;strokeColor=none;fillColor=none;align=left;verticalAlign=middle;whiteSpace=wrap;rounded=0;" vertex="1" parent="1">
          <mxGeometry x="260" y="200" width="100" height="20" as="geometry" />
        </mxCell>
        <mxCell id="mnrNPgdbOXEI5jngkruV-18" value="&lt;font style=&quot;font-size: 10px&quot;&gt;+ 2,000&lt;/font&gt;" style="text;html=1;strokeColor=none;fillColor=none;align=left;verticalAlign=middle;whiteSpace=wrap;rounded=0;" vertex="1" parent="1">
          <mxGeometry x="260" y="220" width="90" height="20" as="geometry" />
        </mxCell>
        <mxCell id="mnrNPgdbOXEI5jngkruV-19" value="&lt;font size=&quot;1&quot;&gt;1.2 M Total&lt;/font&gt;" style="text;html=1;strokeColor=none;fillColor=none;align=left;verticalAlign=middle;whiteSpace=wrap;rounded=0;" vertex="1" parent="1">
          <mxGeometry x="260" y="240" width="100" height="20" as="geometry" />
        </mxCell>
        <mxCell id="mnrNPgdbOXEI5jngkruV-20" value="" style="rounded=1;whiteSpace=wrap;html=1;" vertex="1" parent="1">
          <mxGeometry x="380" y="200" width="120" height="60" as="geometry" />
        </mxCell>
        <mxCell id="mnrNPgdbOXEI5jngkruV-21" value="&lt;font style=&quot;font-size: 10px&quot;&gt;Deaths&lt;/font&gt;" style="text;html=1;strokeColor=none;fillColor=none;align=left;verticalAlign=middle;whiteSpace=wrap;rounded=0;" vertex="1" parent="1">
          <mxGeometry x="390" y="200" width="100" height="20" as="geometry" />
        </mxCell>
        <mxCell id="mnrNPgdbOXEI5jngkruV-22" value="&lt;font style=&quot;font-size: 10px&quot;&gt;+ 2,000&lt;/font&gt;" style="text;html=1;strokeColor=none;fillColor=none;align=left;verticalAlign=middle;whiteSpace=wrap;rounded=0;" vertex="1" parent="1">
          <mxGeometry x="390" y="220" width="90" height="20" as="geometry" />
        </mxCell>
        <mxCell id="mnrNPgdbOXEI5jngkruV-23" value="&lt;font size=&quot;1&quot;&gt;1.2 M Total&lt;/font&gt;" style="text;html=1;strokeColor=none;fillColor=none;align=left;verticalAlign=middle;whiteSpace=wrap;rounded=0;" vertex="1" parent="1">
          <mxGeometry x="390" y="240" width="100" height="20" as="geometry" />
        </mxCell>
        <mxCell id="mnrNPgdbOXEI5jngkruV-28" value="" style="verticalLabelPosition=bottom;shadow=0;dashed=0;align=center;html=1;verticalAlign=top;strokeWidth=1;shape=mxgraph.mockup.misc.map;" vertex="1" parent="1">
          <mxGeometry x="120" y="290" width="380" height="450" as="geometry" />
        </mxCell>
        <mxCell id="mnrNPgdbOXEI5jngkruV-33" value="" style="shape=image;html=1;verticalAlign=top;verticalLabelPosition=bottom;labelBackgroundColor=#ffffff;imageAspect=0;aspect=fixed;image=https://cdn1.iconfinder.com/data/icons/ecommerce-61/48/eccomerce_-_location-128.png" vertex="1" parent="1">
          <mxGeometry x="292" y="370" width="48" height="48" as="geometry" />
        </mxCell>
        <mxCell id="mnrNPgdbOXEI5jngkruV-34" value="" style="shape=image;html=1;verticalAlign=top;verticalLabelPosition=bottom;labelBackgroundColor=#ffffff;imageAspect=0;aspect=fixed;image=https://cdn0.iconfinder.com/data/icons/small-n-flat/24/678111-map-marker-128.png" vertex="1" parent="1">
          <mxGeometry x="340" y="630" width="50" height="50" as="geometry" />
        </mxCell>
        <mxCell id="mnrNPgdbOXEI5jngkruV-35" value="" style="rounded=1;whiteSpace=wrap;html=1;arcSize=2;" vertex="1" parent="1">
          <mxGeometry x="520" y="130" width="200" height="610" as="geometry" />
        </mxCell>
        <mxCell id="mnrNPgdbOXEI5jngkruV-36" value="Cases By Country&lt;span style=&quot;white-space: pre&quot;&gt; &lt;/span&gt;" style="text;html=1;strokeColor=none;fillColor=none;align=left;verticalAlign=middle;whiteSpace=wrap;rounded=0;" vertex="1" parent="1">
          <mxGeometry x="530" y="140" width="180" height="20" as="geometry" />
        </mxCell>
        <mxCell id="mnrNPgdbOXEI5jngkruV-38" value="Worldwide New Cases" style="text;html=1;strokeColor=none;fillColor=none;align=left;verticalAlign=middle;whiteSpace=wrap;rounded=0;" vertex="1" parent="1">
          <mxGeometry x="525" y="520" width="190" height="20" as="geometry" />
        </mxCell>
        <mxCell id="mnrNPgdbOXEI5jngkruV-56" value="" style="rounded=1;whiteSpace=wrap;html=1;arcSize=9;" vertex="1" parent="1">
          <mxGeometry x="527.5" y="550" width="185" height="180" as="geometry" />
        </mxCell>
        <mxCell id="mnrNPgdbOXEI5jngkruV-57" value="" style="fillColor=#10739E;strokeColor=none;" vertex="1" parent="1">
          <mxGeometry x="530" y="610" width="30" height="100" as="geometry" />
        </mxCell>
        <mxCell id="mnrNPgdbOXEI5jngkruV-58" value="" style="shape=mxgraph.arrows2.arrow;dy=0.4;dx=16;notch=0;direction=north;fillColor=#1699D3;strokeColor=none;" vertex="1" parent="mnrNPgdbOXEI5jngkruV-57">
          <mxGeometry x="3" y="30" width="24" height="70" as="geometry" />
        </mxCell>
        <mxCell id="mnrNPgdbOXEI5jngkruV-59" value="Label" style="text;html=1;align=center;verticalAlign=middle;whiteSpace=wrap;fontColor=#FFFFFF;fontSize=10;" vertex="1" parent="mnrNPgdbOXEI5jngkruV-57">
          <mxGeometry width="30" height="20" as="geometry" />
        </mxCell>
        <mxCell id="mnrNPgdbOXEI5jngkruV-60" value="" style="fillColor=#F2931E;strokeColor=none;" vertex="1" parent="1">
          <mxGeometry x="565" y="590" width="30" height="120" as="geometry" />
        </mxCell>
        <mxCell id="mnrNPgdbOXEI5jngkruV-61" value="" style="shape=mxgraph.arrows2.arrow;dy=0.4;dx=16;notch=0;direction=south;fillColor=#F5AB50;strokeColor=none;" vertex="1" parent="mnrNPgdbOXEI5jngkruV-60">
          <mxGeometry x="3" width="24" height="80" as="geometry" />
        </mxCell>
        <mxCell id="mnrNPgdbOXEI5jngkruV-62" value="Label" style="text;html=1;align=center;verticalAlign=middle;whiteSpace=wrap;fontColor=#FFFFFF;fontSize=10;" vertex="1" parent="mnrNPgdbOXEI5jngkruV-60">
          <mxGeometry width="30" height="20" as="geometry" />
        </mxCell>
        <mxCell id="mnrNPgdbOXEI5jngkruV-63" value="" style="fillColor=#AE4132;strokeColor=none;" vertex="1" parent="1">
          <mxGeometry x="600" y="580" width="30" height="130" as="geometry" />
        </mxCell>
        <mxCell id="mnrNPgdbOXEI5jngkruV-64" value="" style="shape=mxgraph.arrows2.arrow;dy=0.4;dx=16;notch=0;direction=north;fillColor=#E85642;strokeColor=none;" vertex="1" parent="mnrNPgdbOXEI5jngkruV-63">
          <mxGeometry x="3" y="80" width="24" height="50" as="geometry" />
        </mxCell>
        <mxCell id="mnrNPgdbOXEI5jngkruV-65" value="Label" style="text;html=1;align=center;verticalAlign=middle;whiteSpace=wrap;fontColor=#FFFFFF;fontSize=10;" vertex="1" parent="mnrNPgdbOXEI5jngkruV-63">
          <mxGeometry width="30" height="20" as="geometry" />
        </mxCell>
        <mxCell id="mnrNPgdbOXEI5jngkruV-66" value="" style="fillColor=#12AAB5;strokeColor=none;" vertex="1" parent="1">
          <mxGeometry x="635" y="630" width="30" height="80" as="geometry" />
        </mxCell>
        <mxCell id="mnrNPgdbOXEI5jngkruV-67" value="" style="shape=mxgraph.arrows2.arrow;dy=0.4;dx=16;notch=0;direction=south;fillColor=#64BBE2;strokeColor=none;" vertex="1" parent="mnrNPgdbOXEI5jngkruV-66">
          <mxGeometry x="3" width="24" height="30" as="geometry" />
        </mxCell>
        <mxCell id="mnrNPgdbOXEI5jngkruV-68" value="Label" style="text;html=1;align=center;verticalAlign=middle;whiteSpace=wrap;fontColor=#FFFFFF;fontSize=10;" vertex="1" parent="mnrNPgdbOXEI5jngkruV-66">
          <mxGeometry width="30" height="20" as="geometry" />
        </mxCell>
        <mxCell id="mnrNPgdbOXEI5jngkruV-69" value="" style="fillColor=#23445D;strokeColor=none;" vertex="1" parent="1">
          <mxGeometry x="670" y="640" width="30" height="70" as="geometry" />
        </mxCell>
        <mxCell id="mnrNPgdbOXEI5jngkruV-70" value="" style="shape=mxgraph.arrows2.arrow;dy=0.4;dx=16;notch=0;direction=north;fillColor=#2F5B7C;strokeColor=none;" vertex="1" parent="mnrNPgdbOXEI5jngkruV-69">
          <mxGeometry x="3" y="10" width="24" height="60" as="geometry" />
        </mxCell>
        <mxCell id="mnrNPgdbOXEI5jngkruV-71" value="Label" style="text;html=1;align=center;verticalAlign=middle;whiteSpace=wrap;fontColor=#FFFFFF;fontSize=10;" vertex="1" parent="mnrNPgdbOXEI5jngkruV-69">
          <mxGeometry width="30" height="20" as="geometry" />
        </mxCell>
        <mxCell id="mnrNPgdbOXEI5jngkruV-72" value="&lt;table border=&quot;0&quot; width=&quot;100%&quot; height=&quot;100%&quot; style=&quot;width:100%;height:100%;border-collapse:collapse;&quot;&gt;&lt;tr&gt;&lt;td align=&quot;center&quot;&gt;Value 1&lt;/td&gt;&lt;td align=&quot;center&quot;&gt;Value 2&lt;/td&gt;&lt;td align=&quot;center&quot;&gt;Value 3&lt;/td&gt;&lt;/tr&gt;&lt;tr&gt;&lt;td align=&quot;center&quot;&gt;Value 4&lt;/td&gt;&lt;td align=&quot;center&quot;&gt;Value 5&lt;/td&gt;&lt;td align=&quot;center&quot;&gt;Value 6&lt;/td&gt;&lt;/tr&gt;&lt;tr&gt;&lt;td align=&quot;center&quot;&gt;Value 7&lt;/td&gt;&lt;td align=&quot;center&quot;&gt;Value 8&lt;/td&gt;&lt;td align=&quot;center&quot;&gt;Value 9&lt;/td&gt;&lt;/tr&gt;&lt;/table&gt;" style="text;html=1;strokeColor=#c0c0c0;fillColor=none;overflow=fill;" vertex="1" parent="1">
          <mxGeometry x="530" y="170" width="180" height="330" as="geometry" />
        </mxCell>
      </root>
    </mxGraphModel>
  </diagram>
</mxfile>
